G04*
G04 #@! TF.GenerationSoftware,Altium Limited,Altium Designer,20.1.7 (139)*
G04*
G04 Layer_Physical_Order=1*
G04 Layer_Color=255*
%FSLAX44Y44*%
%MOMM*%
G71*
G04*
G04 #@! TF.SameCoordinates,2747E987-55E1-4CBB-BCA4-A6C4FBFFDA4E*
G04*
G04*
G04 #@! TF.FilePolarity,Positive*
G04*
G01*
G75*
%ADD14R,1.6000X1.3000*%
%ADD15R,0.9000X0.9000*%
%ADD21C,0.5000*%
%ADD22R,1.6000X2.0000*%
%ADD23O,1.6000X2.0000*%
%ADD24C,1.2700*%
G36*
X605000Y890000D02*
Y792090D01*
X603827Y791604D01*
X602000Y793431D01*
Y798458D01*
X602108Y799000D01*
X602000Y799542D01*
Y804500D01*
X597042D01*
X596500Y804608D01*
X595958Y804500D01*
X581270D01*
X580000Y804500D01*
X578730Y804500D01*
X558000D01*
Y793431D01*
X554177Y789608D01*
X553323D01*
X547500Y795431D01*
Y802500D01*
X537090D01*
X536604Y803673D01*
X546265Y813335D01*
X547481Y815154D01*
X547908Y817300D01*
Y852460D01*
X552840D01*
Y863730D01*
X542300D01*
X531760D01*
Y852460D01*
X536692D01*
Y819623D01*
X519109Y802040D01*
X512960D01*
Y795891D01*
X506785Y789715D01*
X506270Y788945D01*
X505000Y789330D01*
Y890000D01*
X510000Y895000D01*
X600000D01*
X605000Y890000D01*
D02*
G37*
G36*
X532500Y797910D02*
Y787500D01*
X539570D01*
X547035Y780035D01*
X548854Y778819D01*
X551000Y778392D01*
X556500D01*
X558646Y778819D01*
X560465Y780035D01*
X565931Y785500D01*
X578730D01*
X580000Y785500D01*
X581270Y785500D01*
X594069D01*
X597892Y781677D01*
Y754823D01*
X592570Y749500D01*
X581270D01*
X580000Y749500D01*
X578730Y749500D01*
X565931D01*
X560161Y755269D01*
X558342Y756485D01*
X556196Y756912D01*
X551304D01*
X549158Y756485D01*
X547339Y755269D01*
X539570Y747500D01*
X532500D01*
Y732500D01*
X547500D01*
Y739569D01*
X553627Y745696D01*
X553873D01*
X558000Y741569D01*
Y730500D01*
X578730D01*
X580000Y730500D01*
X581270Y730500D01*
X585392D01*
Y725232D01*
X584332Y724418D01*
X582833Y722465D01*
X581891Y720191D01*
X581569Y717750D01*
X581891Y715309D01*
X582833Y713035D01*
X584332Y711081D01*
X586285Y709583D01*
X588559Y708641D01*
X591000Y708319D01*
X593441Y708641D01*
X595715Y709583D01*
X597668Y711081D01*
X599167Y713035D01*
X600109Y715309D01*
X600431Y717750D01*
X600109Y720191D01*
X599167Y722465D01*
X597668Y724418D01*
X596608Y725232D01*
Y730500D01*
X602000D01*
Y743069D01*
X603827Y744896D01*
X605000Y744410D01*
Y710000D01*
X605000D01*
X600000Y705000D01*
X510000D01*
X505000Y710000D01*
Y745670D01*
X506270Y746055D01*
X506785Y745285D01*
X512960Y739109D01*
Y732960D01*
X518730D01*
Y740000D01*
X520000D01*
Y741270D01*
X527040D01*
Y747040D01*
X520891D01*
X516358Y751573D01*
Y783427D01*
X520891Y787960D01*
X527040D01*
Y794109D01*
X531327Y798396D01*
X532500Y797910D01*
D02*
G37*
%LPC*%
G36*
X552840Y877540D02*
X543570D01*
Y866270D01*
X552840D01*
Y877540D01*
D02*
G37*
G36*
X541030D02*
X531760D01*
Y866270D01*
X541030D01*
Y877540D01*
D02*
G37*
G36*
X567700Y878095D02*
X564828Y877717D01*
X562152Y876609D01*
X559855Y874845D01*
X558092Y872548D01*
X556983Y869872D01*
X556605Y867000D01*
Y863000D01*
X556983Y860128D01*
X558092Y857452D01*
X559855Y855155D01*
X562152Y853391D01*
X564828Y852283D01*
X567700Y851905D01*
X570496Y852273D01*
X577485Y845285D01*
X579304Y844069D01*
X581450Y843642D01*
X583518D01*
X584332Y842581D01*
X586285Y841083D01*
X588559Y840141D01*
X591000Y839819D01*
X593441Y840141D01*
X595715Y841083D01*
X597668Y842581D01*
X599167Y844535D01*
X600109Y846809D01*
X600431Y849250D01*
X600109Y851691D01*
X599167Y853965D01*
X597668Y855919D01*
X595715Y857417D01*
X593441Y858359D01*
X591000Y858681D01*
X588559Y858359D01*
X586285Y857417D01*
X584332Y855919D01*
X584215Y855766D01*
X582947Y855683D01*
X578427Y860204D01*
X578795Y863000D01*
Y867000D01*
X578417Y869872D01*
X577309Y872548D01*
X575545Y874845D01*
X573247Y876609D01*
X570572Y877717D01*
X567700Y878095D01*
D02*
G37*
G36*
X527040Y738730D02*
X521270D01*
Y732960D01*
X527040D01*
Y738730D01*
D02*
G37*
%LPD*%
D14*
X569000Y740000D02*
D03*
X591000D02*
D03*
X569000Y795000D02*
D03*
X591000D02*
D03*
D15*
X520000Y740000D02*
D03*
X540000D02*
D03*
Y795000D02*
D03*
X520000D02*
D03*
D21*
X591000Y717750D02*
Y740000D01*
X567700Y863000D02*
Y865000D01*
X581450Y849250D02*
X591000D01*
X567700Y863000D02*
X581450Y849250D01*
X591000Y740000D02*
X592500D01*
X596500Y744000D01*
Y745500D01*
X603500Y752500D01*
Y784000D01*
X591000Y795000D02*
X592500D01*
X603500Y784000D01*
X592500Y795000D02*
X596500Y799000D01*
X510750Y785750D02*
X520000Y795000D01*
X510750Y749250D02*
Y785750D01*
Y749250D02*
X520000Y740000D01*
X556196Y751304D02*
X567500Y740000D01*
X540000D02*
X551304Y751304D01*
X556196D01*
X567500Y740000D02*
X569000D01*
X540000Y795000D02*
X551000Y784000D01*
X556500D01*
X567500Y795000D02*
X569000D01*
X556500Y784000D02*
X567500Y795000D01*
X542300Y817300D02*
Y865000D01*
X520000Y795000D02*
X542300Y817300D01*
D22*
Y865000D02*
D03*
D23*
X567700D02*
D03*
D24*
X591000Y717750D02*
D03*
Y849250D02*
D03*
M02*
