G04*
G04 #@! TF.GenerationSoftware,Altium Limited,Altium Designer,20.1.7 (139)*
G04*
G04 Layer_Color=65535*
%FSLAX44Y44*%
%MOMM*%
G71*
G04*
G04 #@! TF.SameCoordinates,2747E987-55E1-4CBB-BCA4-A6C4FBFFDA4E*
G04*
G04*
G04 #@! TF.FilePolarity,Positive*
G04*
G01*
G75*
%ADD10C,0.2000*%
%ADD11C,0.1270*%
%ADD12C,0.2540*%
%ADD13R,0.4000X1.6000*%
D10*
X529600Y894210D02*
X580400D01*
Y835790D02*
Y894210D01*
X529600Y835790D02*
X580400D01*
X529600D02*
Y894210D01*
X542300Y835790D02*
Y852300D01*
X567700D01*
Y835790D02*
Y852300D01*
X603000Y730000D02*
Y750000D01*
X557000D02*
X603000D01*
X557000Y730000D02*
X603000D01*
X557000D02*
Y750000D01*
X603000Y785000D02*
Y805000D01*
X557000D02*
X603000D01*
X557000Y785000D02*
X603000D01*
X557000D02*
Y805000D01*
X509000Y732000D02*
X548000D01*
X509000D02*
Y748000D01*
X548000D01*
Y732000D02*
Y748000D01*
Y787000D02*
Y803000D01*
X509000D02*
X548000D01*
X509000Y787000D02*
Y803000D01*
Y787000D02*
X548000D01*
D11*
X511270Y723647D02*
X512936D01*
X512103D01*
Y718648D01*
X511270D01*
X512936D01*
X516268Y721981D02*
X517934D01*
X518768Y721148D01*
Y718648D01*
X516268D01*
X515435Y719481D01*
X516268Y720314D01*
X518768D01*
X522100Y716982D02*
X522933D01*
X523766Y717815D01*
Y721981D01*
X521267D01*
X520434Y721148D01*
Y719481D01*
X521267Y718648D01*
X523766D01*
X526265D02*
X527931D01*
X528764Y719481D01*
Y721148D01*
X527931Y721981D01*
X526265D01*
X525432Y721148D01*
Y719481D01*
X526265Y718648D01*
X531264Y724480D02*
Y722814D01*
X530430Y721981D01*
X533763Y718648D02*
X536262D01*
X537095Y719481D01*
X536262Y720314D01*
X534596D01*
X533763Y721148D01*
X534596Y721981D01*
X537095D01*
X544593Y718648D02*
Y722814D01*
Y721148D01*
X543759D01*
X545425D01*
X544593D01*
Y722814D01*
X545425Y723647D01*
X547925Y718648D02*
X549591D01*
X548758D01*
Y721981D01*
X547925D01*
X552090D02*
Y718648D01*
Y720314D01*
X552923Y721148D01*
X553756Y721981D01*
X554589D01*
X557088Y718648D02*
X559588D01*
X560421Y719481D01*
X559588Y720314D01*
X557921D01*
X557088Y721148D01*
X557921Y721981D01*
X560421D01*
X562920Y722814D02*
Y721981D01*
X562087D01*
X563753D01*
X562920D01*
Y719481D01*
X563753Y718648D01*
X517101Y711268D02*
X518768D01*
X519601Y710435D01*
Y707936D01*
X517101D01*
X516268Y708769D01*
X517101Y709602D01*
X519601D01*
X521267Y707936D02*
X522933D01*
X522100D01*
Y712934D01*
X521267D01*
X526265Y712101D02*
Y711268D01*
X525432D01*
X527098D01*
X526265D01*
Y708769D01*
X527098Y707936D01*
X529597D02*
X531264D01*
X530430D01*
Y711268D01*
X529597D01*
X533763D02*
Y708769D01*
X534596Y707936D01*
X537095D01*
Y711268D01*
X538761Y707936D02*
Y711268D01*
X539594D01*
X540427Y710435D01*
Y707936D01*
Y710435D01*
X541260Y711268D01*
X542093Y710435D01*
Y707936D01*
X548758Y706270D02*
Y711268D01*
X551257D01*
X552090Y710435D01*
Y708769D01*
X551257Y707936D01*
X548758D01*
X557088Y711268D02*
X554589D01*
X553756Y710435D01*
Y708769D01*
X554589Y707936D01*
X557088D01*
X558755Y712934D02*
Y707936D01*
X561254D01*
X562087Y708769D01*
Y709602D01*
Y710435D01*
X561254Y711268D01*
X558755D01*
X523730Y876270D02*
Y879656D01*
Y877963D01*
X513573D01*
X515266Y876270D01*
D12*
X566304Y811383D02*
Y826618D01*
X573922D01*
X576461Y824078D01*
Y819000D01*
X573922Y816461D01*
X566304D01*
X571382D02*
X576461Y811383D01*
X591696D02*
X581539D01*
X591696Y821539D01*
Y824078D01*
X589157Y826618D01*
X584078D01*
X581539Y824078D01*
X569843Y754382D02*
Y769617D01*
X577461D01*
X580000Y767078D01*
Y762000D01*
X577461Y759461D01*
X569843D01*
X574922D02*
X580000Y754382D01*
X585078D02*
X590157D01*
X587618D01*
Y769617D01*
X585078Y767078D01*
X517304Y827617D02*
Y812383D01*
X527461D01*
X542696D02*
X532539D01*
X542696Y822539D01*
Y825078D01*
X540157Y827617D01*
X535078D01*
X532539Y825078D01*
X519843Y772617D02*
Y757383D01*
X530000D01*
X535078D02*
X540157D01*
X537618D01*
Y772617D01*
X535078Y770078D01*
X595000Y872617D02*
X589922D01*
X592461D01*
Y859922D01*
X589922Y857383D01*
X587383D01*
X584843Y859922D01*
X600078Y857383D02*
X605157D01*
X602618D01*
Y872617D01*
X600078Y870078D01*
D13*
X511000Y740000D02*
D03*
Y795000D02*
D03*
M02*
