G04*
G04 #@! TF.GenerationSoftware,Altium Limited,Altium Designer,20.1.7 (139)*
G04*
G04 Layer_Physical_Order=2*
G04 Layer_Color=16711680*
%FSLAX44Y44*%
%MOMM*%
G71*
G04*
G04 #@! TF.SameCoordinates,2747E987-55E1-4CBB-BCA4-A6C4FBFFDA4E*
G04*
G04*
G04 #@! TF.FilePolarity,Positive*
G04*
G01*
G75*
%ADD21C,0.5000*%
%ADD22R,1.6000X2.0000*%
%ADD23O,1.6000X2.0000*%
%ADD24C,1.2700*%
G36*
X605000Y890000D02*
Y710000D01*
X605000D01*
X600000Y705000D01*
X510000D01*
X505000Y710000D01*
Y890000D01*
X510000Y895000D01*
X600000D01*
X605000Y890000D01*
D02*
G37*
%LPC*%
G36*
X552840Y877540D02*
X543570D01*
Y866270D01*
X552840D01*
Y877540D01*
D02*
G37*
G36*
X541030D02*
X531760D01*
Y866270D01*
X541030D01*
Y877540D01*
D02*
G37*
G36*
X552840Y863730D02*
X543570D01*
Y852460D01*
X552840D01*
Y863730D01*
D02*
G37*
G36*
X541030D02*
X531760D01*
Y852460D01*
X541030D01*
Y863730D01*
D02*
G37*
G36*
X567700Y878095D02*
X564828Y877717D01*
X562152Y876609D01*
X559855Y874845D01*
X558092Y872548D01*
X556983Y869872D01*
X556605Y867000D01*
Y863000D01*
X556983Y860128D01*
X558092Y857452D01*
X559855Y855155D01*
X562152Y853391D01*
X564828Y852283D01*
X567700Y851905D01*
X570572Y852283D01*
X573247Y853391D01*
X575545Y855155D01*
X577309Y857452D01*
X578417Y860128D01*
X578795Y863000D01*
Y867000D01*
X578417Y869872D01*
X577309Y872548D01*
X575545Y874845D01*
X573247Y876609D01*
X570572Y877717D01*
X567700Y878095D01*
D02*
G37*
G36*
X591000Y858681D02*
X588559Y858359D01*
X586285Y857417D01*
X584332Y855919D01*
X582833Y853965D01*
X581891Y851691D01*
X581569Y849250D01*
X581891Y846809D01*
X582833Y844535D01*
X584332Y842581D01*
X585392Y841768D01*
Y725232D01*
X584332Y724418D01*
X582833Y722465D01*
X581891Y720191D01*
X581569Y717750D01*
X581891Y715309D01*
X582833Y713035D01*
X584332Y711081D01*
X586285Y709583D01*
X588559Y708641D01*
X591000Y708319D01*
X593441Y708641D01*
X595715Y709583D01*
X597668Y711081D01*
X599167Y713035D01*
X600109Y715309D01*
X600431Y717750D01*
X600109Y720191D01*
X599167Y722465D01*
X597668Y724418D01*
X596608Y725232D01*
Y841768D01*
X597668Y842581D01*
X599167Y844535D01*
X600109Y846809D01*
X600431Y849250D01*
X600109Y851691D01*
X599167Y853965D01*
X597668Y855919D01*
X595715Y857417D01*
X593441Y858359D01*
X591000Y858681D01*
D02*
G37*
%LPD*%
D21*
Y717750D02*
Y849250D01*
D22*
X542300Y865000D02*
D03*
D23*
X567700D02*
D03*
D24*
X591000Y717750D02*
D03*
Y849250D02*
D03*
M02*
